# xmcd CD database file
# Copyright (C) 1996 Ti Kan
#
# Track frame offsets:
# 	172
# 	11000
# 	20182
# 	31075
# 	41940
# 	53882
# 	64435
# 	76942
# 	87717
# 	99570
# 	109482
# 	118537
# 	127717
# 	136830
# 	148050
# 	156460
#
# Disc length: 2219 seconds
#
# Revision: 1
# Processed by: cddbd v1.4b41PL1 Copyright (c) Steve Scherf et al.
# Submitted via: DiscPlay 3.4.1
#
DISCID=e508a910
DTITLE=JOHNNY CASH - THE GREAT COUNTRY LOVE SONGS COLLECTION
DYEAR=1900
DGENRE=
TTITLE0=FOOLS HALL OF FAME
TTITLE1=BLUE TRAIN
TTITLE2=I GEARD THAT LONESOME WHISTLE
TTITLE3=I JUST THOUGHT YOUD LIKE TO KNOW
TTITLE4=PORT OF LENELY HEART
TTITLE5=COLD COLD HEART
TTITLE6=GIVE MY LOVE TO ROSE
TTITLE7=TRAIN OF LOVE
TTITLE8=SO DOGGONE LONESOME
TTITLE9=STORU OF A BROKEN HEART
TTITLE10=TWO TIMIN WOMAN
TTITLE11=I COULDNT KEEP FROM CRYING
TTITLE12=REMEMBER ME
TTITLE13=DONT MAKE ME GO
TTITLE14=ALWAYS ALONE
TTITLE15=GOODBYE LITTLE DARLIN
EXTD=
EXTT0=
EXTT1=
EXTT2=
EXTT3=
EXTT4=
EXTT5=
EXTT6=
EXTT7=
EXTT8=
EXTT9=
EXTT10=
EXTT11=
EXTT12=
EXTT13=
EXTT14=
EXTT15=
PLAYORDER=
